<svg xmlns="http://www.w3.org/2000/svg" xmlns:xlink="http://www.w3.org/1999/xlink" width="238" height="238" viewBox="0 0 238 238">
  <defs>
    <linearGradient id="linear-gradient" x1="0.5" x2="0.5" y2="1" gradientUnits="objectBoundingBox">
      <stop offset="0" stop-color="#9fa9ff"/>
      <stop offset="1" stop-color="#15afff"/>
    </linearGradient>
    <clipPath id="clip-path">
      <rect id="사각형_25800" data-name="사각형 25800" width="238" height="238" rx="25" transform="translate(0 0.365)" fill="url(#linear-gradient)"/>
    </clipPath>
    <clipPath id="clip-path-2">
      <path id="패스_9214" data-name="패스 9214" d="M59.9,164.473c-6.079,0-10.7-2.973-14.145-9.089-3.708-6.6-4.755-15.3-2.9-23.872,5.682-26.2,26.8-31.612,35.236-32.732.891,25.918-2.444,63.839-15.6,65.524a21.728,21.728,0,0,1-2.6.169h0Z" transform="translate(-41.955 -98.78)" fill="none"/>
    </clipPath>
    <clipPath id="clip-path-3">
      <path id="패스_9216" data-name="패스 9216" d="M248.365,164.473a21.729,21.729,0,0,1-2.6-.169c-13.158-1.685-16.492-39.606-15.6-65.524,8.439,1.12,29.554,6.537,35.236,32.732,1.866,8.571.807,17.263-2.9,23.872-3.431,6.115-8.054,9.089-14.145,9.089Z" transform="translate(-230.028 -98.78)" fill="none"/>
    </clipPath>
  </defs>
  <g id="마스크_그룹_49" data-name="마스크 그룹 49" transform="translate(0 -0.365)" clip-path="url(#clip-path)">
    <g id="그룹_21651" data-name="그룹 21651" transform="translate(-17.347 -25.871)">
      <rect id="사각형_25797" data-name="사각형 25797" width="238" height="238" transform="translate(17.347 26.235)" fill="url(#linear-gradient)"/>
      <path id="패스_9189" data-name="패스 9189" d="M170.137,399.04c39.958.938,72.014,28.03,72.014,61.324,0,36.993-12.064,51.681-30.628,57.5-11.683,3.686-25.949,3.835-41.386,3.849-15.45-.013-29.7-.163-41.4-3.849-18.564-5.821-30.628-20.509-30.628-57.5C98.11,427.07,130.166,399.965,170.137,399.04Zm42.882,97.079V453.645a5.679,5.679,0,0,0-5.671-5.685H132.913a5.682,5.682,0,0,0-5.685,5.685v42.474a5.68,5.68,0,0,0,5.685,5.671h74.435A5.677,5.677,0,0,0,213.019,496.119Z" transform="translate(-33.031 -396.85)" fill="#d2d7ff"/>
      <path id="패스_9190" data-name="패스 9190" d="M205.311,440.695v42.474a5.677,5.677,0,0,1-5.671,5.671H125.2a5.68,5.68,0,0,1-5.685-5.671V440.695a5.682,5.682,0,0,1,5.685-5.685H199.64A5.68,5.68,0,0,1,205.311,440.695ZM187.44,462.17c0-3.346-1.836-6.052-4.094-6.052s-4.107,2.706-4.107,6.052,1.836,6.066,4.107,6.066S187.44,465.516,187.44,462.17Zm-41.848,0c0-3.346-1.836-6.052-4.094-6.052s-4.107,2.706-4.107,6.052,1.836,6.066,4.107,6.066S145.592,465.516,145.592,462.17Z" transform="translate(-25.322 -383.9)" fill="#fff"/>
      <g id="그룹_21646" data-name="그룹 21646" transform="translate(62.903)">
        <path id="패스_9191" data-name="패스 9191" d="M167.537,450.53c2.258,0,4.094,2.707,4.094,6.052s-1.836,6.066-4.094,6.066-4.107-2.72-4.107-6.066S165.266,450.53,167.537,450.53Z" transform="translate(-72.416 -378.312)" fill="#577aca"/>
        <path id="패스_9192" data-name="패스 9192" d="M136.767,450.53c2.258,0,4.094,2.707,4.094,6.052s-1.836,6.066-4.094,6.066-4.107-2.72-4.107-6.066S134.5,450.53,136.767,450.53Z" transform="translate(-83.495 -378.312)" fill="#577aca"/>
        <g id="그룹_21645" data-name="그룹 21645" transform="translate(0)">
          <path id="패스_9193" data-name="패스 9193" d="M162.992,491.592H125.781a7.862,7.862,0,0,1-7.861-7.847V441.271a7.865,7.865,0,0,1,7.861-7.861h37.211a2.176,2.176,0,0,1,0,4.352H125.781a3.517,3.517,0,0,0-3.509,3.509v42.474a3.506,3.506,0,0,0,3.509,3.5h37.211a2.176,2.176,0,1,1,0,4.352Z" transform="translate(-88.802 -384.476)" fill="#577aca"/>
          <path id="패스_9194" data-name="패스 9194" d="M137.343,465.39c-3.523,0-6.283-3.618-6.283-8.242s2.761-8.228,6.283-8.228,6.27,3.618,6.27,8.228S140.866,465.39,137.343,465.39Zm0-12.118c-.775,0-1.931,1.551-1.931,3.876s1.156,3.89,1.931,3.89,1.918-1.55,1.918-3.89S138.1,453.272,137.343,453.272Z" transform="translate(-84.071 -378.892)" fill="#577aca"/>
          <path id="패스_9195" data-name="패스 9195" d="M138.929,451.146a1.9,1.9,0,0,1-.666-.109c-5.726-1.836-10.785-7.072-11-7.3a2.174,2.174,0,0,1,3.142-3.006c.041.041,4.529,4.678,9.18,6.161a2.172,2.172,0,0,1-.653,4.243Z" transform="translate(-85.656 -382.083)" fill="#577aca"/>
          <path id="패스_9196" data-name="패스 9196" d="M172.808,524.467h-2.094c-13.886,0-29.608-.027-42.052-3.944-22.237-6.977-32.151-25.351-32.151-59.583,0-16.728,7.739-32.518,21.788-44.46,13.913-11.819,32.5-18.578,52.361-19.04h2.149a2.169,2.169,0,1,1,0,4.339h-2.094c-39.142.925-69.851,26.9-69.851,59.161,0,41.032,15.559,51.178,29.1,55.421,11.819,3.726,27.187,3.74,40.747,3.754h2.094a2.176,2.176,0,1,1,0,4.352Z" transform="translate(-96.51 -397.426)" fill="#577aca"/>
          <path id="패스_9197" data-name="패스 9197" d="M147.577,470.005a2.176,2.176,0,0,1-1.442-3.808l5.522-4.882a2.178,2.178,0,0,1,2.883,3.264l-5.522,4.882A2.144,2.144,0,0,1,147.577,470.005Z" transform="translate(-78.909 -374.626)" fill="#577aca"/>
          <path id="패스_9198" data-name="패스 9198" d="M188.86,491.592H151.636a2.176,2.176,0,1,1,0-4.352H188.86a3.494,3.494,0,0,0,3.5-3.5V441.271a3.506,3.506,0,0,0-3.5-3.509H151.636a2.176,2.176,0,1,1,0-4.352H188.86a7.862,7.862,0,0,1,7.847,7.861v42.474A7.859,7.859,0,0,1,188.86,491.592Z" transform="translate(-77.446 -384.476)" fill="#577aca"/>
          <path id="패스_9199" data-name="패스 9199" d="M168.113,465.39c-3.522,0-6.283-3.618-6.283-8.242s2.761-8.228,6.283-8.228,6.27,3.618,6.27,8.228S171.636,465.39,168.113,465.39Zm0-12.118c-.775,0-1.931,1.551-1.931,3.876s1.156,3.89,1.931,3.89,1.918-1.55,1.918-3.89S168.875,453.272,168.113,453.272Z" transform="translate(-72.992 -378.892)" fill="#577aca"/>
          <path id="패스_9200" data-name="패스 9200" d="M152.2,524.471H150.1a2.176,2.176,0,0,1,0-4.352H152.2c13.56,0,28.942-.027,40.733-3.754,13.56-4.243,29.1-14.389,29.1-55.421,0-32.246-30.7-58.223-69.892-59.148H150.1a2.183,2.183,0,0,1,0-4.366H152.2c19.9.476,38.489,7.249,52.4,19.054,14.049,11.941,21.788,27.731,21.788,44.46,0,34.232-9.915,52.606-32.151,59.583C181.812,524.444,166.09,524.457,152.2,524.471Z" transform="translate(-78.001 -397.43)" fill="#577aca"/>
          <path id="패스_9201" data-name="패스 9201" d="M157.157,470a2.168,2.168,0,0,1-1.442-.544l-5.522-4.882a2.178,2.178,0,0,1,2.883-3.264L158.6,466.2A2.176,2.176,0,0,1,157.157,470Z" transform="translate(-77.445 -374.625)" fill="#577aca"/>
        </g>
      </g>
      <path id="패스_9202" data-name="패스 9202" d="M269.5,131.414c1.974,9.077.975,18.828-3.274,26.4-3.575,6.38-9.763,12.1-20.357,10.738a10.609,10.609,0,0,1-2.817-.77c.169-2.059.253-4.165.253-6.332,0-27.531-5.875-48.935-16.059-65.151.024-.494.036-.758.036-.758S261.776,95.793,269.5,131.414Z" transform="translate(1.345 59.787)" fill="#fff"/>
      <path id="패스_9203" data-name="패스 9203" d="M243.342,161.321c0,2.167-.084,4.274-.253,6.332-17.925-7.644-16.107-64.272-15.806-71.483,10.184,16.216,16.059,37.619,16.059,65.151Z" transform="translate(1.313 59.915)" fill="#fff"/>
      <path id="패스_9204" data-name="패스 9204" d="M260.985,103.351c-.3,7.211-2.119,63.839,15.806,71.483-2.648,34.514-27.255,54.569-61.9,63.2-2.7-.638-7.1-1.216-10.329.71l-2.721,1.95a207.938,207.938,0,0,1-32.576,2.432,190.665,190.665,0,0,1-44.867-4.912v-.06c-.108,0-.241-.024-.361-.024-34.863-8.583-59.637-28.651-62.3-63.3,18.984-8.1,15.83-71.146,15.77-72.229h0c19-30.264,52.992-41.664,91.756-41.664S242,73.087,260.985,103.351Zm-40.292,60.7c5.116,0,9.269-1.36,9.269-7.1s-7.452-13.7-12.568-13.7-5.971,4.659-5.971,10.4S215.565,164.048,220.693,164.048Zm-50.886,9.378c4.37-.072,7.187-1.794,4.562-4.611a7.373,7.373,0,0,0-10.2,0c-2.636,2.817.181,4.538,4.55,4.611h1.083ZM127.12,153.646c0-5.742-.855-10.4-5.971-10.4s-12.58,7.957-12.58,13.7,4.153,7.1,9.269,7.1S127.12,159.389,127.12,153.646Z" transform="translate(-32.389 52.734)" fill="#fff"/>
      <path id="패스_9205" data-name="패스 9205" d="M77.553,95.55c.06,1.083,3.214,64.128-15.77,72.229-.169-2.059-.253-4.165-.253-6.332C61.53,133.314,67.393,111.729,77.553,95.55Z" transform="translate(-32.432 59.789)" fill="#fff"/>
      <path id="패스_9206" data-name="패스 9206" d="M82.152,95.54h0c-10.16,16.191-16.023,37.776-16.023,65.909,0,2.167.084,4.274.253,6.332a10.606,10.606,0,0,1-2.817.77c-10.582,1.36-16.769-4.358-20.345-10.738-4.25-7.572-5.249-17.323-3.286-26.4C47.674,95.793,82.152,95.54,82.152,95.54Z" transform="translate(-37.031 59.787)" fill="#fff"/>
      <g id="그룹_21647" data-name="그룹 21647" transform="translate(68.657 174.471)">
        <path id="패스_9207" data-name="패스 9207" d="M204.619,143.01c0,5.742-4.153,7.1-9.269,7.1s-9.269-4.659-9.269-10.4.843-10.4,5.971-10.4,12.568,7.957,12.568,13.7Z" transform="translate(-75.703 -107.801)" fill="#577aca"/>
        <path id="패스_9208" data-name="패스 9208" d="M157.2,150.9c2.624,2.817-.193,4.538-4.562,4.611h-1.083c-4.37-.072-7.187-1.794-4.55-4.611a7.373,7.373,0,0,1,10.2,0Z" transform="translate(-83.876 -103.819)" fill="#577aca"/>
        <path id="패스_9209" data-name="패스 9209" d="M113.22,129.31c5.116,0,5.971,4.659,5.971,10.4s-4.153,10.4-9.281,10.4-9.269-1.36-9.269-7.1S108.092,129.31,113.22,129.31Z" transform="translate(-93.117 -107.801)" fill="#577aca"/>
        <path id="패스_9210" data-name="패스 9210" d="M96.316,126.9a1.88,1.88,0,0,1-1.156-.385,1.911,1.911,0,0,1-.373-2.7c8.1-10.726,22.957-12.3,23.583-12.363a1.924,1.924,0,1,1,.385,3.828c-.132.012-13.82,1.493-20.886,10.846a1.9,1.9,0,0,1-1.541.77Z" transform="translate(-94.391 -111.443)" fill="#577aca"/>
        <path id="패스_9211" data-name="패스 9211" d="M210.22,126.9a1.961,1.961,0,0,1-1.541-.758c-7.079-9.354-20.754-10.834-20.886-10.846a1.924,1.924,0,1,1,.385-3.828c.626.06,15.469,1.637,23.583,12.363a1.933,1.933,0,0,1-.373,2.7,1.905,1.905,0,0,1-1.156.385Z" transform="translate(-75.706 -111.442)" fill="#577aca"/>
      </g>
      <path id="패스_9212" data-name="패스 9212" d="M60.847,171c-8.066,0-14.578-4.069-18.984-11.918-4.358-7.753-5.622-17.865-3.491-27.748,7.981-36.7,43.723-37.391,44.084-37.391a2.106,2.106,0,0,1,1.372.554,1.94,1.94,0,0,1,.566,1.372h0c.144,2.576,3.383,65.344-16.938,74.011a12.411,12.411,0,0,1-3.323.9,26.007,26.007,0,0,1-3.3.217Zm19.8-73.108c-7.1.614-32.118,4.851-38.51,34.261-1.938,8.969-.819,18.106,3.082,25.052,4.213,7.512,10.413,10.81,18.419,9.775a9,9,0,0,0,2.3-.626C80.253,160.235,81.444,116.6,80.65,97.9Z" transform="translate(-37.359 59.461)" fill="#231815"/>
      <path id="패스_9213" data-name="패스 9213" d="M249.281,171a26,26,0,0,1-3.3-.217,12.635,12.635,0,0,1-3.335-.915c-18.732-7.981-17.419-62.491-16.962-73.337V96.52l.036-.758a1.932,1.932,0,0,1,1.926-1.842h.012c.361,0,36.127.686,44.084,37.391,2.143,9.871.879,19.984-3.479,27.748-4.394,7.849-10.919,11.918-18.984,11.918ZM229.49,97.893c-.843,23.306,1.312,62.731,14.687,68.437a9.108,9.108,0,0,0,2.311.638c8.005,1.011,14.217-2.263,18.419-9.775,3.9-6.958,5.02-16.083,3.07-25.052-6.38-29.385-31.372-33.635-38.5-34.249Z" transform="translate(0.984 59.457)" fill="#231815"/>
      <g id="그룹_21648" data-name="그룹 21648" transform="translate(5.533 159.227)" clip-path="url(#clip-path-2)">
        <rect id="사각형_25798" data-name="사각형 25798" width="37.993" height="65.693" transform="translate(-0.969 0)" fill="#d2d7ff"/>
        <ellipse id="타원_1556" data-name="타원 1556" cx="26.532" cy="26.532" rx="26.532" ry="26.532" transform="translate(-8.397 6.32)" fill="#d2d7ff"/>
        <ellipse id="타원_1557" data-name="타원 1557" cx="25.87" cy="25.87" rx="25.87" ry="25.87" transform="translate(-7.735 6.982)" fill="#d1d7ff"/>
        <ellipse id="타원_1558" data-name="타원 1558" cx="25.208" cy="25.208" rx="25.208" ry="25.208" transform="translate(-7.073 7.644)" fill="#d0d7ff"/>
        <ellipse id="타원_1559" data-name="타원 1559" cx="24.546" cy="24.546" rx="24.546" ry="24.546" transform="translate(-6.411 8.306)" fill="#cfd7ff"/>
        <ellipse id="타원_1560" data-name="타원 1560" cx="23.884" cy="23.884" rx="23.884" ry="23.884" transform="translate(-5.749 8.968)" fill="#ced7ff"/>
        <ellipse id="타원_1561" data-name="타원 1561" cx="23.222" cy="23.222" rx="23.222" ry="23.222" transform="translate(-5.087 9.631)" fill="#cdd7ff"/>
        <ellipse id="타원_1562" data-name="타원 1562" cx="22.548" cy="22.548" rx="22.548" ry="22.548" transform="translate(-4.412 10.305)" fill="#ccd7ff"/>
        <ellipse id="타원_1563" data-name="타원 1563" cx="21.886" cy="21.886" rx="21.886" ry="21.886" transform="translate(-3.75 10.967)" fill="#cbd7ff"/>
        <ellipse id="타원_1564" data-name="타원 1564" cx="21.223" cy="21.223" rx="21.223" ry="21.223" transform="translate(-3.088 11.629)" fill="#cad7ff"/>
        <ellipse id="타원_1565" data-name="타원 1565" cx="20.561" cy="20.561" rx="20.561" ry="20.561" transform="translate(-2.426 12.291)" fill="#c9d7ff"/>
        <ellipse id="타원_1566" data-name="타원 1566" cx="19.899" cy="19.899" rx="19.899" ry="19.899" transform="translate(-1.764 12.953)" fill="#c8d7ff"/>
        <ellipse id="타원_1567" data-name="타원 1567" cx="19.237" cy="19.237" rx="19.237" ry="19.237" transform="translate(-1.102 13.615)" fill="#c7d7ff"/>
        <ellipse id="타원_1568" data-name="타원 1568" cx="18.575" cy="18.575" rx="18.575" ry="18.575" transform="translate(-0.44 14.277)" fill="#c6d7ff"/>
        <ellipse id="타원_1569" data-name="타원 1569" cx="17.913" cy="17.913" rx="17.913" ry="17.913" transform="translate(0.222 14.939)" fill="#c5d7ff"/>
        <ellipse id="타원_1570" data-name="타원 1570" cx="17.251" cy="17.251" rx="17.251" ry="17.251" transform="translate(0.884 15.602)" fill="#c4d7ff"/>
        <ellipse id="타원_1571" data-name="타원 1571" cx="16.589" cy="16.589" rx="16.589" ry="16.589" transform="translate(1.547 16.264)" fill="#c3d7ff"/>
        <ellipse id="타원_1572" data-name="타원 1572" cx="15.915" cy="15.915" rx="15.915" ry="15.915" transform="translate(2.221 16.938)" fill="#c2d7ff"/>
        <ellipse id="타원_1573" data-name="타원 1573" cx="15.252" cy="15.252" rx="15.252" ry="15.252" transform="translate(2.883 17.6)" fill="#c1d7ff"/>
        <ellipse id="타원_1574" data-name="타원 1574" cx="14.59" cy="14.59" rx="14.59" ry="14.59" transform="translate(3.545 18.262)" fill="#c0d7ff"/>
        <ellipse id="타원_1575" data-name="타원 1575" cx="13.928" cy="13.928" rx="13.928" ry="13.928" transform="translate(4.207 18.924)" fill="#bfd7ff"/>
        <ellipse id="타원_1576" data-name="타원 1576" cx="13.266" cy="13.266" rx="13.266" ry="13.266" transform="translate(4.869 19.586)" fill="#bdd7ff"/>
        <ellipse id="타원_1577" data-name="타원 1577" cx="12.604" cy="12.604" rx="12.604" ry="12.604" transform="translate(5.531 20.248)" fill="#bcd7ff"/>
        <ellipse id="타원_1578" data-name="타원 1578" cx="11.942" cy="11.942" rx="11.942" ry="11.942" transform="translate(6.193 20.91)" fill="#bbd7ff"/>
        <ellipse id="타원_1579" data-name="타원 1579" cx="11.28" cy="11.28" rx="11.28" ry="11.28" transform="translate(6.855 21.573)" fill="#bad7ff"/>
        <ellipse id="타원_1580" data-name="타원 1580" cx="10.618" cy="10.618" rx="10.618" ry="10.618" transform="translate(7.518 22.235)" fill="#b9d7ff"/>
        <ellipse id="타원_1581" data-name="타원 1581" cx="9.956" cy="9.956" rx="9.956" ry="9.956" transform="translate(8.18 22.897)" fill="#b8d7ff"/>
        <ellipse id="타원_1582" data-name="타원 1582" cx="9.281" cy="9.281" rx="9.281" ry="9.281" transform="translate(8.854 23.571)" fill="#b7d7ff"/>
        <ellipse id="타원_1583" data-name="타원 1583" cx="8.619" cy="8.619" rx="8.619" ry="8.619" transform="translate(9.516 24.233)" fill="#b6d7ff"/>
        <ellipse id="타원_1584" data-name="타원 1584" cx="7.957" cy="7.957" rx="7.957" ry="7.957" transform="translate(10.178 24.895)" fill="#b5d7ff"/>
        <ellipse id="타원_1585" data-name="타원 1585" cx="7.295" cy="7.295" rx="7.295" ry="7.295" transform="translate(10.84 25.557)" fill="#b4d7ff"/>
        <ellipse id="타원_1586" data-name="타원 1586" cx="6.633" cy="6.633" rx="6.633" ry="6.633" transform="translate(11.502 26.219)" fill="#b3d7ff"/>
        <ellipse id="타원_1587" data-name="타원 1587" cx="5.971" cy="5.971" rx="5.971" ry="5.971" transform="translate(12.164 26.881)" fill="#b2d7ff"/>
        <ellipse id="타원_1588" data-name="타원 1588" cx="5.309" cy="5.309" rx="5.309" ry="5.309" transform="translate(12.826 27.544)" fill="#b1d7ff"/>
        <ellipse id="타원_1589" data-name="타원 1589" cx="4.647" cy="4.647" rx="4.647" ry="4.647" transform="translate(13.489 28.206)" fill="#b0d7ff"/>
        <ellipse id="타원_1590" data-name="타원 1590" cx="3.985" cy="3.985" rx="3.985" ry="3.985" transform="translate(14.151 28.868)" fill="#afd7ff"/>
        <ellipse id="타원_1591" data-name="타원 1591" cx="3.323" cy="3.323" rx="3.323" ry="3.323" transform="translate(14.813 29.53)" fill="#aed7ff"/>
        <ellipse id="타원_1592" data-name="타원 1592" cx="2.648" cy="2.648" rx="2.648" ry="2.648" transform="translate(15.487 30.204)" fill="#add7ff"/>
        <ellipse id="타원_1593" data-name="타원 1593" cx="1.986" cy="1.986" rx="1.986" ry="1.986" transform="translate(16.149 30.866)" fill="#acd7ff"/>
        <ellipse id="타원_1594" data-name="타원 1594" cx="1.324" cy="1.324" rx="1.324" ry="1.324" transform="translate(16.811 31.528)" fill="#abd7ff"/>
        <ellipse id="타원_1595" data-name="타원 1595" cx="0.662" cy="0.662" rx="0.662" ry="0.662" transform="translate(17.473 32.19)" fill="#aad7ff"/>
      </g>
      <path id="패스_9215" data-name="패스 9215" d="M75.137,103.784a242.534,242.534,0,0,1-1.132,26.58c-2.323,22.114-7.572,30.529-11.364,31.023a16.569,16.569,0,0,1-2.143.144c-2.973,0-7.343-.746-10.991-7.247-3.226-5.754-4.165-13.724-2.516-21.332,4.43-20.417,19.177-27.026,28.145-29.157m7.006-8.246s-34.478.253-42.218,35.874c-1.974,9.065-.975,18.828,3.274,26.4,3.214,5.73,8.547,10.943,17.287,10.943a22.611,22.611,0,0,0,3.058-.2C85.827,165.709,82.131,95.55,82.131,95.55h0Z" transform="translate(-37.034 59.789)" fill="#fff"/>
      <g id="그룹_21649" data-name="그룹 21649" transform="translate(231.94 159.227)" clip-path="url(#clip-path-3)">
        <rect id="사각형_25799" data-name="사각형 25799" width="37.993" height="65.693" transform="translate(-0.756 0)" fill="#d2d7ff"/>
        <ellipse id="타원_1596" data-name="타원 1596" cx="26.532" cy="26.532" rx="26.532" ry="26.532" transform="translate(-8.388 6.32)" fill="#d2d7ff"/>
        <ellipse id="타원_1597" data-name="타원 1597" cx="25.87" cy="25.87" rx="25.87" ry="25.87" transform="translate(-7.726 6.982)" fill="#d1d7ff"/>
        <ellipse id="타원_1598" data-name="타원 1598" cx="25.208" cy="25.208" rx="25.208" ry="25.208" transform="translate(-7.064 7.644)" fill="#d0d7ff"/>
        <ellipse id="타원_1599" data-name="타원 1599" cx="24.546" cy="24.546" rx="24.546" ry="24.546" transform="translate(-6.402 8.306)" fill="#cfd7ff"/>
        <ellipse id="타원_1600" data-name="타원 1600" cx="23.884" cy="23.884" rx="23.884" ry="23.884" transform="translate(-5.74 8.968)" fill="#ced7ff"/>
        <ellipse id="타원_1601" data-name="타원 1601" cx="23.222" cy="23.222" rx="23.222" ry="23.222" transform="translate(-5.078 9.631)" fill="#cdd7ff"/>
        <ellipse id="타원_1602" data-name="타원 1602" cx="22.548" cy="22.548" rx="22.548" ry="22.548" transform="translate(-4.404 10.305)" fill="#ccd7ff"/>
        <ellipse id="타원_1603" data-name="타원 1603" cx="21.886" cy="21.886" rx="21.886" ry="21.886" transform="translate(-3.741 10.967)" fill="#cbd7ff"/>
        <ellipse id="타원_1604" data-name="타원 1604" cx="21.223" cy="21.223" rx="21.223" ry="21.223" transform="translate(-3.079 11.629)" fill="#cad7ff"/>
        <ellipse id="타원_1605" data-name="타원 1605" cx="20.561" cy="20.561" rx="20.561" ry="20.561" transform="translate(-2.417 12.291)" fill="#c9d7ff"/>
        <ellipse id="타원_1606" data-name="타원 1606" cx="19.899" cy="19.899" rx="19.899" ry="19.899" transform="translate(-1.755 12.953)" fill="#c8d7ff"/>
        <ellipse id="타원_1607" data-name="타원 1607" cx="19.237" cy="19.237" rx="19.237" ry="19.237" transform="translate(-1.093 13.615)" fill="#c7d7ff"/>
        <ellipse id="타원_1608" data-name="타원 1608" cx="18.575" cy="18.575" rx="18.575" ry="18.575" transform="translate(-0.431 14.277)" fill="#c6d7ff"/>
        <ellipse id="타원_1609" data-name="타원 1609" cx="17.913" cy="17.913" rx="17.913" ry="17.913" transform="translate(0.231 14.939)" fill="#c5d7ff"/>
        <ellipse id="타원_1610" data-name="타원 1610" cx="17.251" cy="17.251" rx="17.251" ry="17.251" transform="translate(0.893 15.602)" fill="#c4d7ff"/>
        <ellipse id="타원_1611" data-name="타원 1611" cx="16.589" cy="16.589" rx="16.589" ry="16.589" transform="translate(1.555 16.264)" fill="#c3d7ff"/>
        <ellipse id="타원_1612" data-name="타원 1612" cx="15.915" cy="15.915" rx="15.915" ry="15.915" transform="translate(2.23 16.938)" fill="#c2d7ff"/>
        <ellipse id="타원_1613" data-name="타원 1613" cx="15.252" cy="15.252" rx="15.252" ry="15.252" transform="translate(2.892 17.6)" fill="#c1d7ff"/>
        <ellipse id="타원_1614" data-name="타원 1614" cx="14.59" cy="14.59" rx="14.59" ry="14.59" transform="translate(3.554 18.262)" fill="#c0d7ff"/>
        <ellipse id="타원_1615" data-name="타원 1615" cx="13.928" cy="13.928" rx="13.928" ry="13.928" transform="translate(4.216 18.924)" fill="#bfd7ff"/>
        <ellipse id="타원_1616" data-name="타원 1616" cx="13.266" cy="13.266" rx="13.266" ry="13.266" transform="translate(4.878 19.586)" fill="#bdd7ff"/>
        <ellipse id="타원_1617" data-name="타원 1617" cx="12.604" cy="12.604" rx="12.604" ry="12.604" transform="translate(5.54 20.248)" fill="#bcd7ff"/>
        <ellipse id="타원_1618" data-name="타원 1618" cx="11.942" cy="11.942" rx="11.942" ry="11.942" transform="translate(6.202 20.91)" fill="#bbd7ff"/>
        <ellipse id="타원_1619" data-name="타원 1619" cx="11.28" cy="11.28" rx="11.28" ry="11.28" transform="translate(6.864 21.573)" fill="#bad7ff"/>
        <ellipse id="타원_1620" data-name="타원 1620" cx="10.618" cy="10.618" rx="10.618" ry="10.618" transform="translate(7.526 22.235)" fill="#b9d7ff"/>
        <ellipse id="타원_1621" data-name="타원 1621" cx="9.956" cy="9.956" rx="9.956" ry="9.956" transform="translate(8.189 22.897)" fill="#b8d7ff"/>
        <ellipse id="타원_1622" data-name="타원 1622" cx="9.281" cy="9.281" rx="9.281" ry="9.281" transform="translate(8.863 23.571)" fill="#b7d7ff"/>
        <ellipse id="타원_1623" data-name="타원 1623" cx="8.619" cy="8.619" rx="8.619" ry="8.619" transform="translate(9.525 24.233)" fill="#b6d7ff"/>
        <ellipse id="타원_1624" data-name="타원 1624" cx="7.957" cy="7.957" rx="7.957" ry="7.957" transform="translate(10.187 24.895)" fill="#b5d7ff"/>
        <ellipse id="타원_1625" data-name="타원 1625" cx="7.295" cy="7.295" rx="7.295" ry="7.295" transform="translate(10.849 25.557)" fill="#b4d7ff"/>
        <ellipse id="타원_1626" data-name="타원 1626" cx="6.633" cy="6.633" rx="6.633" ry="6.633" transform="translate(11.511 26.219)" fill="#b3d7ff"/>
        <ellipse id="타원_1627" data-name="타원 1627" cx="5.971" cy="5.971" rx="5.971" ry="5.971" transform="translate(12.173 26.881)" fill="#b2d7ff"/>
        <ellipse id="타원_1628" data-name="타원 1628" cx="5.309" cy="5.309" rx="5.309" ry="5.309" transform="translate(12.835 27.544)" fill="#b1d7ff"/>
        <ellipse id="타원_1629" data-name="타원 1629" cx="4.647" cy="4.647" rx="4.647" ry="4.647" transform="translate(13.497 28.206)" fill="#b0d7ff"/>
        <ellipse id="타원_1630" data-name="타원 1630" cx="3.985" cy="3.985" rx="3.985" ry="3.985" transform="translate(14.159 28.868)" fill="#afd7ff"/>
        <ellipse id="타원_1631" data-name="타원 1631" cx="3.323" cy="3.323" rx="3.323" ry="3.323" transform="translate(14.822 29.53)" fill="#aed7ff"/>
        <ellipse id="타원_1632" data-name="타원 1632" cx="2.648" cy="2.648" rx="2.648" ry="2.648" transform="translate(15.496 30.204)" fill="#add7ff"/>
        <ellipse id="타원_1633" data-name="타원 1633" cx="1.986" cy="1.986" rx="1.986" ry="1.986" transform="translate(16.158 30.866)" fill="#acd7ff"/>
        <ellipse id="타원_1634" data-name="타원 1634" cx="1.324" cy="1.324" rx="1.324" ry="1.324" transform="translate(16.82 31.528)" fill="#abd7ff"/>
        <ellipse id="타원_1635" data-name="타원 1635" cx="0.662" cy="0.662" rx="0.662" ry="0.662" transform="translate(17.482 32.19)" fill="#aad7ff"/>
      </g>
      <path id="패스_9217" data-name="패스 9217" d="M234.325,103.788c8.969,2.143,23.715,8.752,28.145,29.157,1.649,7.608.71,15.577-2.516,21.332-3.648,6.5-8.018,7.247-10.991,7.247a16.712,16.712,0,0,1-2.143-.144c-3.792-.481-9.053-8.9-11.364-31.023a242.77,242.77,0,0,1-1.132-26.58m-7.006-8.246s-3.7,70.159,18.587,73.012a24.762,24.762,0,0,0,3.058.2c8.74,0,14.073-5.2,17.287-10.943,4.249-7.572,5.249-17.335,3.274-26.4C261.8,95.783,227.307,95.53,227.307,95.53h0Z" transform="translate(1.313 59.785)" fill="#fff"/>
      <g id="그룹_21650" data-name="그룹 21650" transform="translate(0.004 111.736)">
        <path id="패스_9218" data-name="패스 9218" d="M75.155,104.847a1.9,1.9,0,0,1-1.023-.3,1.928,1.928,0,0,1-.6-2.66C91.263,73.643,122.682,59.33,166.911,59.33a1.926,1.926,0,1,1,0,3.852c-42.82,0-73.144,13.712-90.118,40.749a1.926,1.926,0,0,1-1.637.9Z" transform="translate(-30.051 -59.33)" fill="#577aca"/>
        <path id="패스_9219" data-name="패스 9219" d="M124.363,221.1a1.905,1.905,0,0,1-.457-.06c-39.185-9.643-61.239-32.13-63.755-65.019a1.926,1.926,0,0,1,3.84-.3C67,194.977,98.734,210.868,124.833,217.3a1.931,1.931,0,0,1-.457,3.8Z" transform="translate(-32.718 -40.045)" fill="#577aca"/>
        <path id="패스_9220" data-name="패스 9220" d="M243.106,105.6a1.956,1.956,0,0,1-1.637-.9c-17.034-27.158-48.189-41.508-90.082-41.508a1.926,1.926,0,1,1,0-3.852c43.3,0,75.576,14.976,93.357,43.314a1.932,1.932,0,0,1-.614,2.66,1.875,1.875,0,0,1-1.023.3Z" transform="translate(-14.514 -59.328)" fill="#577aca"/>
        <path id="패스_9221" data-name="패스 9221" d="M189.275,221a1.924,1.924,0,0,1-.457-3.792c25.918-6.452,57.447-22.367,60.444-61.479a1.926,1.926,0,0,1,3.84.3c-2.516,32.768-24.426,55.219-63.357,64.922a2.093,2.093,0,0,1-.469.06Z" transform="translate(-6.79 -40.043)" fill="#577aca"/>
        <path id="패스_9222" data-name="패스 9222" d="M60.846,171c-8.066,0-14.59-4.069-18.984-11.918-4.358-7.765-5.622-17.877-3.479-27.748,7.969-36.7,43.723-37.391,44.084-37.391a1.908,1.908,0,0,1,1.938,1.83c.385,7.367,3.118,72.025-20.26,75.022a25.674,25.674,0,0,1-3.286.217ZM80.637,97.889c-7.115.614-32.118,4.851-38.5,34.249-1.95,8.969-.831,18.093,3.082,25.052,4.213,7.512,10.425,10.8,18.431,9.775,16.288-2.083,17.829-48.827,17-69.075Z" transform="translate(-37.362 -52.276)" fill="#577aca"/>
        <path id="패스_9223" data-name="패스 9223" d="M249.287,171a25.674,25.674,0,0,1-3.286-.217c-23.378-3-20.658-67.655-20.26-75.022a1.994,1.994,0,0,1,1.938-1.83c.361,0,36.115.686,44.084,37.391,2.143,9.871.879,19.983-3.479,27.748-4.406,7.849-10.919,11.918-18.984,11.918ZM229.5,97.891c-.819,20.248.722,66.981,17,69.075,8.017,1.023,14.217-2.263,18.431-9.775,3.9-6.958,5.02-16.083,3.082-25.052-6.38-29.4-31.4-33.647-38.5-34.249Z" transform="translate(0.974 -52.278)" fill="#577aca"/>
      </g>
    </g>
  </g>
</svg>
