<svg xmlns="http://www.w3.org/2000/svg" xmlns:xlink="http://www.w3.org/1999/xlink" width="137.555" height="125.329" viewBox="0 0 137.555 125.329">
  <defs>
    <linearGradient id="linear-gradient" x1="0.149" x2="1" y2="1" gradientUnits="objectBoundingBox">
      <stop offset="0" stop-color="#9fa9ff"/>
      <stop offset="1" stop-color="#15afff"/>
    </linearGradient>
    <filter id="패스_7720" x="0" y="0" width="137.555" height="125.329" filterUnits="userSpaceOnUse">
      <feOffset dy="3" input="SourceAlpha"/>
      <feGaussianBlur stdDeviation="10" result="blur"/>
      <feFlood flood-opacity="0.161"/>
      <feComposite operator="in" in2="blur"/>
      <feComposite in="SourceGraphic"/>
    </filter>
  </defs>
  <g id="코멘트" transform="translate(26.109 17.164)">
    <rect id="사각형_25164" data-name="사각형 25164" width="83" height="83" fill="none" opacity="0.5"/>
    <g transform="matrix(1, 0, 0, 1, -26.11, -17.16)" filter="url(#패스_7720)">
      <g id="패스_7720-2" data-name="패스 7720" transform="translate(38 35)" fill="url(#linear-gradient)">
        <path d="M 59.82663345336914 53.3286247253418 C 57.154541015625 53.3286247253418 53.0029411315918 52.15131759643555 40.77335739135742 46.36458206176758 L 22.73144721984863 46.36458206176758 C 19.15852737426758 46.36458206176758 15.68811416625977 45.71078491210938 12.41660690307617 44.42135620117188 C 9.241646766662598 43.16998291015625 6.386660575866699 41.37518310546875 3.930940389633179 39.08682250976562 C 1.455180525779724 36.77978134155273 -0.4918195009231567 34.08611679077148 -1.855992794036865 31.08065032958984 C -3.278646230697632 27.94634246826172 -3.999992847442627 24.61606216430664 -3.999992847442627 21.18228912353516 C -3.999992847442627 17.74851608276367 -3.278646230697632 14.41823673248291 -1.855992794036865 11.2839298248291 C -0.4918195009231567 8.278463363647461 1.455180525779724 5.58479642868042 3.930940389633179 3.277769804000854 C 6.386660575866699 0.9894096851348877 9.241646766662598 -0.8053902983665466 12.41660690307617 -2.056763648986816 C 15.68811416625977 -3.346190214157104 19.15852737426758 -3.999990224838257 22.73144721984863 -3.999990224838257 L 41.6743278503418 -3.999990224838257 C 45.14388656616211 -3.999990224838257 48.48051452636719 -3.047763586044312 51.59149932861328 -1.169750332832336 C 54.37742233276367 0.5120096802711487 56.90984725952148 2.938663005828857 58.91499328613281 5.84786319732666 C 61.30947494506836 9.321943283081055 62.91781997680664 13.38272953033447 63.56612777709961 17.59123611450195 C 64.25875091552734 22.08734321594238 63.81520843505859 26.58995628356934 62.2834587097168 30.6123161315918 C 61.01848602294922 33.93410491943359 62.6552619934082 38.28690338134766 63.9704475402832 41.7844352722168 C 64.48900604248047 43.16347503662109 64.97880554199219 44.46603775024414 65.26776885986328 45.64997100830078 C 65.46553802490234 46.46030426025391 66.0673828125 48.92625045776367 64.60595703125 51.03711700439453 C 64.01345825195312 51.89292907714844 62.60467529296875 53.3286247253418 59.82663345336914 53.3286247253418 Z" stroke="none"/>
        <path d="M 22.7314567565918 3.814697265625e-06 C 10.17722320556641 3.814697265625e-06 0 9.483638763427734 0 21.18229293823242 C 0 32.88095092773438 10.17722320556641 42.36458587646484 22.7314567565918 42.36458587646484 L 41.67433166503906 42.36458587646484 C 76.81112670898438 59.08734893798828 53.639404296875 42.07160186767578 58.54531097412109 29.18878555297852 C 63.45124053955078 16.30598449707031 54.22856903076172 3.814697265625e-06 41.67433166503906 3.814697265625e-06 L 22.7314567565918 3.814697265625e-06 M 22.7314567565918 -7.999996185302734 L 41.67433166503906 -7.999996185302734 C 49.65269470214844 -7.999996185302734 57.13711547851562 -3.780033111572266 62.20849609375 3.577857971191406 C 68.02912902832031 12.0228385925293 69.49020385742188 22.92729568481445 66.02156829833984 32.03583908081055 C 65.29527282714844 33.94303894042969 66.75111389160156 37.81464004516602 67.7144775390625 40.37656784057617 C 69.14731597900391 44.18695068359375 70.93049621582031 48.92911148071289 67.89467620849609 53.31400299072266 C 66.12831115722656 55.86534881591797 63.1876220703125 57.32862091064453 59.82663726806641 57.32862091064453 C 56.51422119140625 57.32862091064453 52.27352142333984 56.19435119628906 39.8771858215332 50.36458587646484 L 22.7314567565918 50.36458587646484 C 5.786079406738281 50.36458587646484 -8 37.27346038818359 -8 21.18229293823242 C -8 5.091129302978516 5.786079406738281 -7.999996185302734 22.7314567565918 -7.999996185302734 Z" stroke="none" fill="#f1f1f5"/>
      </g>
    </g>
  </g>
</svg>
