<svg xmlns="http://www.w3.org/2000/svg" width="107" height="52" viewBox="0 0 107 52">
  <g id="그룹_21680" data-name="그룹 21680" transform="translate(-435 -195.828)">
    <rect id="사각형_25811" data-name="사각형 25811" width="107" height="52" transform="translate(435 195.828)" fill="none"/>
    <path id="확장_로고_최종_fd" data-name="확장_로고 최종_fd" d="M139.685,58.727a3.093,3.093,0,0,1,2.928-3.225h26.352c5.253,0,6.08,2.579,6.08,6.448v3.794c-.048,2.565-1.324,4.63-3.733,4.63l-21.6,0c-.775,0-1.163.276-1.163.968v.276c0,.737.388.922,1.163.922H172.1a3.163,3.163,0,0,1,0,6.309H146.661c-5.038,0-6.953-2.624-6.953-7.046v-.553c0-4.422,1.915-7.093,6.953-7.093h19.161a.981.981,0,0,0,.947-1.013c0-.508-.129-1.106-.99-1.106H142.613a3.091,3.091,0,0,1-2.928-3.316Zm34.835,22.13h-33.07a3.511,3.511,0,1,0,0,7.019h12.143V94.43a4.522,4.522,0,0,0-.025.465,4.417,4.417,0,1,0,8.834,0,4.5,4.5,0,0,0-.025-.465V87.876H174.52a3.511,3.511,0,1,0,0-7.019ZM131.91,69.148l-2.758-.009V58.245a4.264,4.264,0,0,0-8.526,0V94.5a4.28,4.28,0,1,0,8.56,0c0-.175-.034-17.87-.034-17.87l2.758,0a3.739,3.739,0,1,0,0-7.479ZM96.846,63.333a3.625,3.625,0,0,0,3.626-3.626v-3.68a3.626,3.626,0,1,0-7.252,0v3.68A3.625,3.625,0,0,0,96.846,63.333ZM117,80.212A13.374,13.374,0,0,1,106.289,93.3h0l-.014,0c-.184.036-.367.068-.553.1l-.084.014c-.215.032-.431.059-.648.082l-.07,0c-.2.018-.394.034-.594.045-.224.011-.449.018-.678.018A13.355,13.355,0,0,1,90.577,77.474a13.04,13.04,0,0,1,.412-1.512,13.65,13.65,0,0,1,.548-1.373L86.045,69.1a3.739,3.739,0,0,1,5.289-5.287l4.716,4.716L111.005,57.3a3.74,3.74,0,0,1,4.489,5.983l-6.348,4.764L100.8,74.31l-2.017,1.514h0a6.532,6.532,0,0,0-1.4,2.454,6.6,6.6,0,0,0-.276,1.489c-.009.147-.016.3-.016.446a6.564,6.564,0,0,0,6.556,6.556c.127,0,.254,0,.381-.011.034,0,.068,0,.1-.007.1-.007.188-.016.281-.027l.1-.014c.1-.014.195-.027.292-.045l.075-.014c.12-.023.24-.05.358-.079a6.553,6.553,0,0,0,.5-12.569l5.931-4.451a13.334,13.334,0,0,1,5.33,10.661Z" transform="translate(356.622 146.093)" fill="#fdfdfd"/>
  </g>
</svg>
