<svg xmlns="http://www.w3.org/2000/svg" xmlns:xlink="http://www.w3.org/1999/xlink" width="135.463" height="135.962" viewBox="0 0 135.463 135.962">
  <defs>
    <linearGradient id="linear-gradient" x1="1" y1="1" x2="0" gradientUnits="objectBoundingBox">
      <stop offset="0" stop-color="#53acf8"/>
      <stop offset="1" stop-color="#a0a9f9"/>
    </linearGradient>
    <filter id="패스_7719" x="0" y="0" width="135.463" height="135.962" filterUnits="userSpaceOnUse">
      <feOffset dy="3" input="SourceAlpha"/>
      <feGaussianBlur stdDeviation="10" result="blur"/>
      <feFlood flood-opacity="0.161"/>
      <feComposite operator="in" in2="blur"/>
      <feComposite in="SourceGraphic"/>
    </filter>
  </defs>
  <g id="좋아요" transform="translate(26.113 20.136)">
    <rect id="사각형_25078" data-name="사각형 25078" width="83" height="83" fill="none" opacity="0.5"/>
    <g id="그룹_20665" data-name="그룹 20665" transform="translate(11.891 14.864)">
      <g id="그룹_18710" data-name="그룹 18710">
        <g transform="matrix(1, 0, 0, 1, -38, -35)" filter="url(#패스_7719)">
          <g id="패스_7719-2" data-name="패스 7719" transform="translate(38 35)" fill="url(#linear-gradient)">
            <path d="M 29.72735404968262 62.22188186645508 L 26.85856819152832 59.26942825317383 C 23.40500831604004 55.71513366699219 19.82062149047852 52.35258865356445 16.35426139831543 49.10076141357422 C 8.074140548706055 41.33306884765625 0.9231806993484497 34.62466812133789 -1.79135262966156 27.84496116638184 C -3.512312650680542 23.54530715942383 -4.233245849609375 19.36118698120117 -3.934312582015991 15.40838718414307 C -3.652032613754272 11.67589473724365 -2.483566045761108 8.268548011779785 -0.4613792896270752 5.281001091003418 C 1.490393996238708 2.397494316101074 4.206007480621338 0.01488092727959156 7.391887187957764 -1.609252452850342 C 10.45988750457764 -3.173292398452759 13.88582038879395 -3.999999046325684 17.2993278503418 -3.999999046325684 C 20.26739311218262 -3.999999046325684 23.09756660461426 -3.39370584487915 25.71120643615723 -2.197985649108887 C 27.1593017578125 -1.535488724708557 28.50104522705078 -0.7092167735099792 29.72747993469238 0.273768275976181 C 30.95380973815918 -0.7090036273002625 32.29547882080078 -1.535150766372681 33.74359512329102 -2.197665691375732 C 36.35767364501953 -3.393599033355713 39.18780899047852 -3.999999046325684 42.15538024902344 -3.999999046325684 C 45.56911468505859 -3.999999046325684 48.99518203735352 -3.173372507095337 52.06319427490234 -1.609505772590637 C 55.24924850463867 0.01452092733234167 57.9649543762207 2.397080898284912 59.91671371459961 5.280574321746826 C 61.93886184692383 8.268067359924316 63.10724639892578 11.67542743682861 63.3893928527832 15.40802764892578 C 63.68817901611328 19.36081504821777 62.96712875366211 23.54505348205566 61.24624633789062 27.84452056884766 C 58.52432632446289 34.64265441894531 51.29550170898438 41.42329406738281 42.92523574829102 49.27462768554688 C 39.4979133605957 52.48945236206055 35.95389938354492 55.81374740600586 32.59614181518555 59.26942825317383 L 29.72735404968262 62.22188186645508 Z" stroke="none"/>
            <path d="M 29.72735404968262 56.4819450378418 C 40.97551727294922 44.90572738647461 54.09464645385742 34.94478225708008 57.53266143798828 26.35814666748047 C 66.74294281005859 3.347053050994873 40.43562316894531 -7.657541751861572 29.72735404968262 5.926419258117676 C 19.01907730102539 -7.657544612884521 -7.288227558135986 3.347055912017822 1.922044992446899 26.35814666748047 C 5.360063076019287 34.94478225708008 18.24311828613281 44.66278457641602 29.72735404968262 56.4819450378418 M 29.72735404968262 67.96182250976562 L 23.98978996276855 62.05692672729492 C 20.55970001220703 58.52680206298828 16.99971771240234 55.19087219238281 13.61760902404785 52.01807403564453 C 4.990299701690674 43.92470932006836 -2.460482358932495 36.93502044677734 -5.504773139953613 29.33178329467773 C -9.354755401611328 19.71292877197266 -8.73991870880127 10.37556457519531 -3.773900508880615 3.038837194442749 C 0.8349358439445496 -3.77016282081604 8.909717559814453 -7.999999046325684 17.29931831359863 -7.999999046325684 C 21.78367233276367 -7.999999046325684 26.05609703063965 -6.797515392303467 29.72735977172852 -4.579136848449707 C 33.39862823486328 -6.797515392303467 37.67104721069336 -7.999999046325684 42.15539169311523 -7.999999046325684 C 50.54553604125977 -7.999999046325684 58.62055587768555 -3.770326375961304 63.22920989990234 3.038400888442993 C 68.19506072998047 10.37485504150391 68.80968475341797 19.71236419677734 64.95982360839844 29.33089256286621 C 61.90795516967773 36.95310974121094 54.37926483154297 44.01503753662109 45.66177368164062 52.19203567504883 C 42.30607986450195 55.33969116210938 38.80013656616211 58.62443542480469 35.46491622924805 62.05691146850586 L 29.72735404968262 67.96182250976562 Z" stroke="none" fill="#f1f1f5"/>
          </g>
        </g>
      </g>
    </g>
  </g>
</svg>
