<svg xmlns="http://www.w3.org/2000/svg" width="470" height="230" viewBox="0 0 470 230">
  <g id="그룹_21659" data-name="그룹 21659" transform="translate(-435 -196)">
    <rect id="사각형_25811" data-name="사각형 25811" width="470" height="230" transform="translate(435 196)" fill="none"/>
    <path id="확장_로고_최종_fd" data-name="확장_로고 최종_fd" d="M326.47,80.32c0-6.91,4.94-14.23,12.92-14.23H455.67c23.18,0,26.83,11.38,26.83,28.45v16.74c-.21,11.32-5.84,20.43-16.47,20.43l-95.29.02c-3.42,0-5.13,1.22-5.13,4.27v1.22c0,3.25,1.71,4.07,5.13,4.07h98.78c9.31,0,12.92,7.52,12.92,14.02s-3.8,13.82-12.92,13.82H357.25c-22.23,0-30.68-11.58-30.68-31.09V135.6c0-19.51,8.45-31.3,30.68-31.3H441.8a4.331,4.331,0,0,0,4.18-4.47c0-2.24-.57-4.88-4.37-4.88H339.39c-7.98,0-12.92-7.11-12.92-14.63Zm153.71,97.65H334.26c-11.59,0-15.96,7.98-15.96,15.58s4.56,15.39,15.96,15.39h53.58v28.92a19.956,19.956,0,0,0-.11,2.05,19.49,19.49,0,1,0,38.98,0,19.814,19.814,0,0,0-.11-2.05V208.94h53.58c11.4,0,15.96-7.6,15.96-15.39s-4.37-15.58-15.96-15.58ZM292.16,126.3l-12.17-.04V78.19c0-11.97-9.12-18.43-18.81-18.43s-18.81,6.27-18.81,18.43V238.17a18.885,18.885,0,1,0,37.77,0c0-.77-.15-78.85-.15-78.85l12.17-.02a16.5,16.5,0,0,0,0-33ZM137.44,100.64a16,16,0,0,0,16-16V68.4a16,16,0,0,0-32,0V84.64A16,16,0,0,0,137.44,100.64Zm88.95,74.48a59.015,59.015,0,0,1-47.28,57.76h0a.354.354,0,0,1-.06.01c-.81.16-1.62.3-2.44.43l-.37.06c-.95.14-1.9.26-2.86.36-.1.01-.21.01-.31.02-.87.08-1.74.15-2.62.2-.99.05-1.98.08-2.99.08a58.927,58.927,0,0,1-57.68-71,57.543,57.543,0,0,1,1.82-6.67,60.23,60.23,0,0,1,2.42-6.06L89.78,126.07a16.5,16.5,0,0,1,23.34-23.33l20.81,20.81,65.99-49.52a16.5,16.5,0,0,1,19.81,26.4l-28.01,21.02-36.81,27.63-8.9,6.68h0a28.824,28.824,0,0,0-6.18,10.83,29.12,29.12,0,0,0-1.22,6.57c-.04.65-.07,1.31-.07,1.97a28.965,28.965,0,0,0,28.93,28.93c.56,0,1.12-.02,1.68-.05.15,0,.3-.02.45-.03.42-.03.83-.07,1.24-.12l.45-.06c.43-.06.86-.12,1.29-.2l.33-.06c.53-.1,1.06-.22,1.58-.35a28.917,28.917,0,0,0,2.22-55.46l26.17-19.64a58.837,58.837,0,0,1,23.52,47.04Z" transform="translate(379.05 154.6)" fill="#fdfdfd"/>
  </g>
</svg>
